<?xml version="1.0" encoding="UTF-8" standalone="no"?>
<svg
   width="32"
   height="32"
   viewBox="0 0 32 32"
   fill="none"
   version="1.1"
   id="svg4"
   sodipodi:docname="favicon.svg"
   inkscape:version="1.1.2 (0a00cf5339, 2022-02-04)"
   inkscape:export-filename="/home/edu/Projects/Epoch/dev-epoch-website/assets/images/favicon.png"
   inkscape:export-xdpi="299.93201"
   inkscape:export-ydpi="299.93201"
   xmlns:inkscape="http://www.inkscape.org/namespaces/inkscape"
   xmlns:sodipodi="http://sodipodi.sourceforge.net/DTD/sodipodi-0.dtd"
   xmlns="http://www.w3.org/2000/svg"
   xmlns:svg="http://www.w3.org/2000/svg">
  <defs
     id="defs8" />
  <sodipodi:namedview
     id="namedview6"
     pagecolor="#ffffff"
     bordercolor="#666666"
     borderopacity="1.0"
     inkscape:pageshadow="2"
     inkscape:pageopacity="0.0"
     inkscape:pagecheckerboard="0"
     showgrid="false"
     inkscape:zoom="10.248048"
     inkscape:cx="16.490945"
     inkscape:cy="19.174383"
     inkscape:window-width="1280"
     inkscape:window-height="782"
     inkscape:window-x="0"
     inkscape:window-y="18"
     inkscape:window-maximized="1"
     inkscape:current-layer="svg4" />
  <path
     fill-rule="evenodd"
     clip-rule="evenodd"
     d="M 3.44185,20.543291 30.6001,7.879151 C 31.4541,7.480921 32,6.623981 32,5.681701 32,3.907731 30.1574,2.734331 28.5499,3.484601 L 1.39612,16.158291 C 0.544396,16.555891 0,17.410691 0,18.350591 c 0,1.7698 1.83791,2.9407 3.44185,2.1927 z m 20.40005,-4.4969 -22.4452,10.4664 C 0.544674,26.910091 0,27.765091 0,28.705191 c 0,1.7695 1.83765,2.9402 3.44137,2.1924 l 22.44523,-10.4664 c 0.852,-0.3973 1.3967,-1.2523 1.3967,-2.1924 0,-1.7695 -1.8377,-2.9402 -3.4414,-2.1924 z M 11.4808,1.102424 1.3967,5.804721 C 0.544674,6.202031 0,7.057001 0,7.997111 c 0,1.76952 1.83765,2.94018 3.44137,2.1924 l 10.08403,-4.7023 c 0.8521,-0.39731 1.3967,-1.25228 1.3967,-2.1924 0,-1.76951 -1.8376,-2.9402187 -3.4413,-2.192387 z"
     fill="#E6FEF3"
     id="path2"
     style="fill:#00a5a6;fill-opacity:1" />
</svg>
